<svg width="28" height="28" viewBox="0 0 28 28" fill="none" xmlns="http://www.w3.org/2000/svg">
<circle cx="14" cy="14" r="14" fill="url(#paint0_linear_1327_23364)"/>
<path fill-rule="evenodd" clip-rule="evenodd" d="M7.84319 7.17068C7.95319 7.06288 8.09839 7 8.24798 7H22.2131C22.4683 7 22.5959 7.3144 22.4155 7.49855L19.6568 10.3147C19.5512 10.4225 19.406 10.4854 19.252 10.4854H5.28688C5.03169 10.4854 4.90409 10.171 5.08448 9.98683L7.84319 7.17068ZM7.84319 17.6852C7.94879 17.5774 8.09399 17.5145 8.24798 17.5145H22.2131C22.4683 17.5145 22.5959 17.8289 22.4155 18.0131L19.6568 20.8292C19.5512 20.937 19.406 20.9999 19.252 20.9999H5.28688C5.03169 20.9999 4.90409 20.6855 5.08448 20.5014L7.84319 17.6852ZM19.252 12.2244C19.406 12.2244 19.5512 12.2872 19.6568 12.395L22.4155 15.2112C22.5959 15.3953 22.4683 15.7097 22.2131 15.7097H8.24798C8.09399 15.7097 7.94879 15.6469 7.84319 15.5391L5.08448 12.7229C4.90409 12.5388 5.03169 12.2244 5.28688 12.2244H19.252Z" fill="white"/>
<defs>
<linearGradient id="paint0_linear_1327_23364" x1="24.7352" y1="23.8824" x2="-2.31717" y2="17.7657" gradientUnits="userSpaceOnUse">
<stop stop-color="#80CAFF"/>
<stop offset="0.393161" stop-color="#81CFE9"/>
<stop offset="1" stop-color="#85E0A3"/>
</linearGradient>
</defs>
</svg>
