<svg width="78" height="78" viewBox="0 0 78 78" fill="none" xmlns="http://www.w3.org/2000/svg">
<g clip-path="url(#clip0_627_23511)">
<path fill-rule="evenodd" clip-rule="evenodd" d="M38.9999 1C59.9867 1 77 18.0132 77 38.9999C77 59.9867 59.9867 77 38.9999 77C18.0132 77 1 59.9867 1 38.9999C1 18.0132 18.0132 1 38.9999 1Z" fill="#222C3B" stroke="#00F3AB" stroke-opacity="0.2"/>
<path d="M25.3363 46.6603C25.5716 46.4216 25.8952 46.2823 26.2384 46.2823H57.3607C57.9294 46.2823 58.2137 46.9785 57.8117 47.3863L51.6637 53.6221C51.4284 53.8608 51.1048 54 50.7616 54H19.6393C19.0706 54 18.7863 53.3038 19.1883 52.8961L25.3363 46.6603ZM25.3363 23.3779C25.5814 23.1392 25.905 23 26.2384 23H57.3607C57.9294 23 58.2137 23.6962 57.8117 24.1039L51.6637 30.3398C51.4284 30.5784 51.1048 30.7177 50.7616 30.7177H19.6393C19.0706 30.7177 18.7863 30.0215 19.1883 29.6137L25.3363 23.3779ZM51.6637 34.9445C51.4284 34.7058 51.1048 34.5666 50.7616 34.5666H19.6393C19.0706 34.5666 18.7863 35.2628 19.1883 35.6705L25.3363 41.9063C25.5716 42.145 25.8952 42.2842 26.2384 42.2842H57.3607C57.9294 42.2842 58.2137 41.5881 57.8117 41.1803L51.6637 34.9445Z" fill="url(#paint0_linear_627_23511)"/>
<circle cx="14" cy="14" r="8" fill="url(#paint1_linear_627_23511)"/>
<path d="M14.6074 12.2168V18H12.6387V10.6035H14.4912L14.6074 12.2168ZM16.8359 10.5557L16.8018 12.3809C16.7061 12.3672 16.5898 12.3558 16.4531 12.3467C16.321 12.333 16.2002 12.3262 16.0908 12.3262C15.8128 12.3262 15.5713 12.3626 15.3662 12.4355C15.1657 12.5039 14.9971 12.6064 14.8604 12.7432C14.7282 12.8799 14.6279 13.0462 14.5596 13.2422C14.4958 13.4382 14.4593 13.6615 14.4502 13.9121L14.0537 13.7891C14.0537 13.3105 14.1016 12.8708 14.1973 12.4697C14.293 12.0641 14.432 11.7109 14.6143 11.4102C14.8011 11.1094 15.029 10.877 15.2979 10.7129C15.5667 10.5488 15.8743 10.4668 16.2207 10.4668C16.3301 10.4668 16.4417 10.4759 16.5557 10.4941C16.6696 10.5078 16.763 10.5283 16.8359 10.5557Z" fill="black"/>
</g>
<defs>
<linearGradient id="paint0_linear_627_23511" x1="39" y1="15" x2="34.9011" y2="57.6057" gradientUnits="userSpaceOnUse">
<stop stop-color="#85E0A3"/>
<stop offset="1" stop-color="#80CAFF"/>
</linearGradient>
<linearGradient id="paint1_linear_627_23511" x1="8.85714" y1="6" x2="19.1429" y2="19.1429" gradientUnits="userSpaceOnUse">
<stop stop-color="#85E0A3"/>
<stop offset="1" stop-color="#80CAFF"/>
</linearGradient>
<clipPath id="clip0_627_23511">
<rect width="78" height="78" fill="white"/>
</clipPath>
</defs>
</svg>
