<svg width="78" height="78" viewBox="0 0 78 78" fill="none" xmlns="http://www.w3.org/2000/svg">
<g clip-path="url(#clip0_627_23651)">
<path fill-rule="evenodd" clip-rule="evenodd" d="M38.9999 1C59.9867 1 77 18.0132 77 38.9999C77 59.9867 59.9867 77 38.9999 77C18.0132 77 1 59.9867 1 38.9999C1 18.0132 18.0132 1 38.9999 1Z" fill="#222C3B" stroke="#00F3AB" stroke-opacity="0.2"/>
<path d="M25.3363 46.6603C25.5716 46.4216 25.8952 46.2823 26.2384 46.2823H57.3607C57.9294 46.2823 58.2137 46.9785 57.8117 47.3863L51.6637 53.6221C51.4284 53.8608 51.1048 54 50.7616 54H19.6393C19.0706 54 18.7863 53.3038 19.1883 52.8961L25.3363 46.6603ZM25.3363 23.3779C25.5814 23.1392 25.905 23 26.2384 23H57.3607C57.9294 23 58.2137 23.6962 57.8117 24.1039L51.6637 30.3398C51.4284 30.5784 51.1048 30.7177 50.7616 30.7177H19.6393C19.0706 30.7177 18.7863 30.0215 19.1883 29.6137L25.3363 23.3779ZM51.6637 34.9445C51.4284 34.7058 51.1048 34.5666 50.7616 34.5666H19.6393C19.0706 34.5666 18.7863 35.2628 19.1883 35.6705L25.3363 41.9063C25.5716 42.145 25.8952 42.2842 26.2384 42.2842H57.3607C57.9294 42.2842 58.2137 41.5881 57.8117 41.1803L51.6637 34.9445Z" fill="url(#paint0_linear_627_23651)"/>
</g>
<defs>
<linearGradient id="paint0_linear_627_23651" x1="39" y1="15" x2="34.9011" y2="57.6057" gradientUnits="userSpaceOnUse">
<stop stop-color="#85E0A3"/>
<stop offset="1" stop-color="#80CAFF"/>
</linearGradient>
<clipPath id="clip0_627_23651">
<rect width="78" height="78" fill="white"/>
</clipPath>
</defs>
</svg>
